<?xml version="1.0" standalone="no"?>
<!DOCTYPE svg PUBLIC "-//W3C//DTD SVG 20010904//EN"
 "http://www.w3.org/TR/2001/REC-SVG-20010904/DTD/svg10.dtd">
<svg version="1.0" xmlns="http://www.w3.org/2000/svg"
 width="612.000000pt" height="612.000000pt" viewBox="0 0 612.000000 612.000000"
 preserveAspectRatio="xMidYMid meet">
<metadata>
Created by potrace 1.11, written by Peter Selinger 2001-2013
</metadata>
<g transform="translate(0.000000,612.000000) scale(0.100000,-0.100000)"
fill="#d2322d" stroke="none">
<path d="M0 3060 l0 -3060 3060 0 3060 0 0 3060 0 3060 -3060 0 -3060 0 0
-3060z m3338 2544 c665 -98 1226 -529 1490 -1143 105 -245 152 -477 152 -757
0 -188 -16 -318 -62 -504 -174 -708 -730 -1622 -1517 -2493 -155 -172 -212
-207 -341 -207 -83 0 -123 12 -185 55 -69 47 -300 304 -513 570 -695 865
-1112 1663 -1206 2306 -21 142 -21 407 0 552 97 666 545 1238 1171 1497 132
55 301 101 445 124 130 20 433 20 566 0z"/>
<path d="M2830 4954 c-457 -83 -844 -427 -984 -872 -76 -242 -76 -523 0 -763
143 -453 525 -788 998 -874 116 -22 316 -22 432 0 535 97 946 510 1039 1042
19 110 19 316 0 426 -92 529 -510 950 -1033 1042 -107 19 -347 18 -452 -1z
m570 -924 l0 -670 -500 0 -500 0 0 170 0 170 330 0 330 0 0 500 0 500 170 0
170 0 0 -670z"/>
</g>
</svg>
