<?xml version="1.0" standalone="no"?>
<!DOCTYPE svg PUBLIC "-//W3C//DTD SVG 20010904//EN"
 "http://www.w3.org/TR/2001/REC-SVG-20010904/DTD/svg10.dtd">
<svg version="1.0" xmlns="http://www.w3.org/2000/svg"
 width="384.000000pt" height="512.000000pt" viewBox="0 0 384.000000 512.000000"
 preserveAspectRatio="xMidYMid meet">
<metadata>
Created by potrace 1.11, written by Peter Selinger 2001-2013
</metadata>
<g transform="translate(0.000000,512.000000) scale(0.100000,-0.100000)"
fill="#d2322d" stroke="none">
<path d="M1632 5104 c-660 -102 -1218 -534 -1480 -1143 -165 -383 -198 -817
-95 -1241 173 -719 726 -1631 1522 -2513 155 -172 212 -207 341 -207 129 0
186 35 341 207 691 765 1211 1573 1441 2238 98 281 138 503 138 759 0 280 -47
512 -152 757 -264 614 -825 1045 -1490 1143 -133 20 -436 20 -566 0z m510
-649 c523 -92 941 -513 1033 -1042 19 -110 19 -316 0 -426 -93 -532 -504 -945
-1039 -1042 -116 -22 -316 -22 -432 0 -473 86 -855 421 -998 874 -76 240 -76
521 0 763 140 445 527 789 984 872 105 19 345 20 452 1z"/>
<path d="M1920 3700 l0 -500 -330 0 -330 0 0 -170 0 -170 500 0 500 0 0 670 0
670 -170 0 -170 0 0 -500z"/>
</g>
</svg>
