<?xml version="1.0" standalone="no"?>
<!DOCTYPE svg PUBLIC "-//W3C//DTD SVG 20010904//EN"
 "http://www.w3.org/TR/2001/REC-SVG-20010904/DTD/svg10.dtd">
<svg version="1.0" xmlns="http://www.w3.org/2000/svg"
 width="225.000000pt" height="225.000000pt" viewBox="0 0 225.000000 165.000000"
 preserveAspectRatio="xMidYMid meet">
<metadata>
Created by potrace 1.11, written by Peter Selinger 2001-2013
</metadata>
<g transform="translate(0.000000,165.000000) scale(0.100000,-0.100000)"
fill="#005a9c" stroke="none">
<path d="M1366 1624 c-26 -25 -20 -61 12 -78 63 -33 149 -152 232 -322 55
-112 61 -147 30 -164 -26 -14 -25 -26 4 -64 35 -47 39 -70 21 -134 -18 -63
-44 -108 -88 -159 -33 -37 -27 -42 19 -14 67 41 114 134 117 228 2 44 -2 56
-26 81 -27 28 -27 29 -7 47 11 10 20 24 20 32 0 17 27 17 37 -1 21 -35 101
-48 139 -21 12 8 24 12 27 8 10 -10 -5 -67 -25 -92 -10 -13 -18 -38 -18 -55 0
-41 -34 -194 -61 -276 -49 -149 -110 -238 -209 -304 -38 -26 -70 -54 -70 -62
0 -16 45 -19 83 -5 36 14 131 105 166 160 74 114 131 304 131 433 0 84 1 87
31 112 25 22 29 29 19 41 -7 8 -10 25 -6 38 8 35 173 280 245 364 61 73 71 99
49 121 -20 20 -37 14 -44 -15 -16 -78 -37 -106 -222 -316 -110 -124 -137 -141
-181 -116 -41 23 -347 439 -364 495 -13 44 -39 60 -61 38z"/>
<path d="M836 1049 c-132 -22 -325 -168 -386 -292 -28 -57 -59 -174 -60 -222
0 -16 -22 -29 -118 -66 -64 -26 -141 -52 -170 -59 -81 -19 -102 -68 -44 -102
27 -16 232 -66 287 -70 52 -3 105 2 105 10 0 5 -72 23 -161 40 -159 32 -234
56 -223 73 3 5 15 9 28 9 24 0 177 49 217 70 13 7 36 23 50 37 l26 24 13 -78
c16 -105 52 -175 130 -254 72 -73 153 -118 258 -145 192 -48 385 87 409 285
16 135 -107 316 -257 378 -104 42 -263 12 -353 -67 -153 -135 -117 -348 72
-433 69 -31 138 -28 197 8 60 38 87 83 86 142 -1 117 -163 203 -271 145 -84
-45 -94 -174 -19 -226 54 -38 148 -4 148 53 0 56 -73 83 -104 39 -19 -27 -13
-36 9 -14 31 31 70 9 63 -36 -2 -17 -11 -24 -32 -26 -75 -9 -114 30 -96 97 16
59 52 84 115 78 44 -4 54 -10 92 -51 47 -52 63 -104 43 -141 -20 -38 -81 -65
-144 -65 -69 0 -118 23 -169 79 -94 104 -89 233 13 325 66 59 122 81 210 81
64 -1 84 -5 135 -32 115 -59 184 -161 193 -284 8 -120 -42 -225 -130 -270 -86
-44 -244 -32 -360 27 -79 40 -170 136 -197 208 -44 118 -37 287 15 395 39 80
141 177 234 223 179 88 306 89 472 1 79 -41 194 -143 235 -208 36 -58 118 -97
137 -66 11 17 -92 157 -168 228 -142 136 -322 187 -530 152z"/>
</g>
</svg>
