<?xml version="1.0" standalone="no"?>
<!DOCTYPE svg PUBLIC "-//W3C//DTD SVG 20010904//EN"
 "http://www.w3.org/TR/2001/REC-SVG-20010904/DTD/svg10.dtd">
<svg version="1.0" xmlns="http://www.w3.org/2000/svg"
 width="216.000000pt" height="372.000000pt" viewBox="0 0 216.000000 372.000000"
 preserveAspectRatio="xMidYMid meet">
<metadata>
Created by potrace 1.11, written by Peter Selinger 2001-2013
</metadata>
<g transform="translate(0.000000,372.000000) scale(0.100000,-0.100000)"
fill="#d2322d" stroke="none">
<path d="M870 3699 c-406 -85 -734 -387 -840 -774 -31 -112 -39 -358 -16 -474
46 -228 118 -366 371 -716 210 -290 328 -519 436 -845 87 -263 161 -552 191
-745 l22 -145 46 0 46 0 22 145 c30 193 104 482 191 745 108 326 226 555 436
845 253 350 325 488 371 716 23 116 15 362 -16 474 -47 172 -144 339 -275 470
-255 257 -640 376 -985 304z m410 -359 c130 -37 224 -93 325 -195 152 -152
219 -312 219 -525 0 -213 -67 -373 -219 -525 -101 -102 -196 -158 -325 -195
-420 -117 -846 144 -934 572 -83 403 174 790 584 883 87 20 251 13 350 -15z"/>
<path d="M1080 2875 l0 -275 -175 0 -175 0 0 -100 0 -100 285 0 285 0 0 375 0
375 -110 0 -110 0 0 -275z"/>
</g>
</svg>
