<?xml version="1.0" encoding="UTF-8" standalone="no"?>
<!-- Created with Inkscape (http://www.inkscape.org/) -->
<svg
   xmlns:dc="http://purl.org/dc/elements/1.1/"
   xmlns:cc="http://creativecommons.org/ns#"
   xmlns:rdf="http://www.w3.org/1999/02/22-rdf-syntax-ns#"
   xmlns:svg="http://www.w3.org/2000/svg"
   xmlns="http://www.w3.org/2000/svg"
   xmlns:sodipodi="http://sodipodi.sourceforge.net/DTD/sodipodi-0.dtd"
   xmlns:inkscape="http://www.inkscape.org/namespaces/inkscape"
   version="1.0"
   width="70.263153"
   height="70.273781"
   id="svg2912"
   sodipodi:version="0.32"
   inkscape:version="0.45+devel+devel"
   sodipodi:docname="fnac.svg"
   inkscape:output_extension="org.inkscape.output.svg.inkscape">
  <metadata
     id="metadata44">
    <rdf:RDF>
      <cc:Work
         rdf:about="">
        <dc:format>image/svg+xml</dc:format>
        <dc:type
           rdf:resource="http://purl.org/dc/dcmitype/StillImage" />
      </cc:Work>
    </rdf:RDF>
  </metadata>
  <sodipodi:namedview
     inkscape:window-height="850"
     inkscape:window-width="1440"
     inkscape:pageshadow="2"
     inkscape:pageopacity="0.0"
     guidetolerance="10.0"
     gridtolerance="10.0"
     objecttolerance="10.0"
     borderopacity="1.0"
     bordercolor="#666666"
     pagecolor="#ffffff"
     id="base"
     showgrid="false"
     inkscape:zoom="2.8260972"
     inkscape:cx="96.245804"
     inkscape:cy="35.513"
     inkscape:window-x="-8"
     inkscape:window-y="-8"
     inkscape:current-layer="svg2912" />
  <defs
     id="defs2914" />
  <g
     transform="translate(-259.41316,-785.42061)"
     id="g3204">
    <g
       transform="matrix(1.7710572,0,0,-1.7710572,-700.90896,889.4348)"
       id="g3082"
       style="fill:none;stroke:none">
      <g
         transform="translate(576.478,19.051)"
         id="g3084">
        <path
           d="M 0,0 L -34.247,5.424 L -28.821,39.679 L 5.426,34.256 L 0,0"
           id="path3086"
           style="fill:#ffffff;fill-rule:nonzero;stroke:none" />
      </g>
    </g>
    <g
       transform="matrix(1.7710572,0,0,-1.7710572,-700.90896,889.4348)"
       id="g3088"
       style="fill:none;stroke:none">
      <g
         transform="translate(575.334,40.658)"
         id="g3090">
        <path
           d="M 0,0 C -0.742,0.043 -1.331,0.126 -1.832,0.311 C -2.746,0.65 -4.229,1.596 -4.212,3.426 L -4.212,3.653 C -4.231,5.469 -2.747,6.416 -1.832,6.755 C -1.331,6.941 -0.742,7.023 0,7.066 C 2.753,7.226 3.921,6.313 4.412,5.519 L 5.406,11.799 L -26.829,16.904 L -28.397,7.008 L -27.701,7.008 C -27.719,7.287 -27.742,8.511 -26.839,9.288 C -26.839,9.288 -25.849,10.263 -22.978,10.033 C -22.978,10.033 -20.045,9.79 -20.045,7.66 L -22.086,7.66 C -22.086,7.66 -22.16,8.844 -23.985,8.79 C -23.985,8.79 -25.85,8.827 -25.689,7.008 L -20.045,7.008 L -20.045,6.075 C -19.879,6.329 -19.45,6.752 -18.363,7.046 C -18.363,7.046 -13.728,8.067 -13.262,4.763 L -13.262,0.114 L -15.301,0.113 L -15.301,3.97 C -15.605,6.048 -17.917,5.668 -17.917,5.668 C -19.498,5.533 -19.938,4.634 -20.045,3.975 L -20.045,0.113 L -22.084,0.113 L -22.084,5.611 L -25.658,5.611 L -25.658,0.113 L -27.697,0.114 L -27.697,5.611 L -28.618,5.611 L -31.935,-15.331 L 0.301,-20.437 L 3.657,0.755 C 2.961,0.263 1.831,-0.106 0,0"
           id="path3092"
           style="fill:#e7ad0f;fill-rule:nonzero;stroke:none" />
      </g>
    </g>
    <g
       transform="matrix(1.7710572,0,0,-1.7710572,-700.90896,889.4348)"
       id="g3094"
       style="fill:none;stroke:none">
      <g
         transform="translate(575.856,46.371)"
         id="g3096">
        <path
           d="M 0,0 C 0,0 -2.521,0.156 -2.609,-2.143 L -2.61,-2.213 C -2.523,-4.517 0,-4.36 0,-4.36 C 1.138,-4.367 1.756,-4.001 2.073,-3.348 L 3.39,-3.348 L 3.76,-1.012 L 2.073,-1.012 C 1.756,-0.36 1.138,0.007 0,0"
           id="path3098"
           style="fill:#e7ad0f;fill-rule:nonzero;stroke:none" />
      </g>
    </g>
    <g
       transform="matrix(1.7710572,0,0,-1.7710572,-700.90896,889.4348)"
       id="g3100"
       style="fill:none;stroke:none">
      <g
         transform="translate(570.807,44.918)"
         id="g3102">
        <path
           d="M 0,0 L 0.052,-4.146 L -1.972,-4.147 L -2.04,-3.37 L -2.04,-3.339 C -2.841,-4.342 -4.796,-4.281 -4.796,-4.281 C -8.458,-4.349 -8.404,-2.335 -8.404,-2.335 C -8.688,-0.241 -6.022,-0.277 -3.782,-0.146 C -1.555,-0.016 -2.079,0.854 -2.079,0.854 C -2.174,1.584 -3.782,1.655 -3.782,1.655 C -6.012,1.831 -6.03,0.46 -6.03,0.46 L -8.117,0.46 C -8.117,0.46 -8.11,2.219 -5.909,2.725 C -5.888,2.732 -4.596,3.111 -2.348,2.736 C -2.348,2.736 0.175,2.395 0,0 z M -2.06,-0.92 C -2.062,-0.887 -2.077,-0.92 -2.077,-0.92 C -2.3,-1.224 -3.417,-1.228 -3.417,-1.228 C -4.532,-1.303 -6.193,-1.252 -6.166,-2.233 C -6.138,-3.273 -4.782,-3.156 -4.148,-3.131 C -3.432,-3.101 -2.817,-2.91 -2.307,-2.287 C -1.862,-1.744 -2.057,-0.952 -2.06,-0.92"
           id="path3104"
           style="fill:#ffffff;fill-rule:nonzero;stroke:none" />
      </g>
    </g>
  </g>
</svg>
