<?xml version="1.0" encoding="UTF-8" standalone="no"?>
<!-- Created with Inkscape (http://www.inkscape.org/) -->

<svg
   xmlns:dc="http://purl.org/dc/elements/1.1/"
   xmlns:cc="http://creativecommons.org/ns#"
   xmlns:rdf="http://www.w3.org/1999/02/22-rdf-syntax-ns#"
   xmlns:svg="http://www.w3.org/2000/svg"
   xmlns="http://www.w3.org/2000/svg"
   xmlns:sodipodi="http://sodipodi.sourceforge.net/DTD/sodipodi-0.dtd"
   xmlns:inkscape="http://www.inkscape.org/namespaces/inkscape"
   width="450.00952"
   height="449.99734"
   id="svg3067"
   version="1.1"
   inkscape:version="0.48.4 r9939"
   sodipodi:docname="glue.svg">
  <defs
     id="defs3069" />
  <sodipodi:namedview
     id="base"
     pagecolor="#ffffff"
     bordercolor="#666666"
     borderopacity="1.0"
     inkscape:pageopacity="0.0"
     inkscape:pageshadow="2"
     inkscape:zoom="1.4"
     inkscape:cx="143.60995"
     inkscape:cy="223.20022"
     inkscape:document-units="px"
     inkscape:current-layer="layer1"
     showgrid="false"
     inkscape:window-width="1920"
     inkscape:window-height="1002"
     inkscape:window-x="1920"
     inkscape:window-y="0"
     inkscape:window-maximized="1"
     fit-margin-top="0"
     fit-margin-left="0"
     fit-margin-right="0"
     fit-margin-bottom="0" />
  <metadata
     id="metadata3072">
    <rdf:RDF>
      <cc:Work
         rdf:about="">
        <dc:format>image/svg+xml</dc:format>
        <dc:type
           rdf:resource="http://purl.org/dc/dcmitype/StillImage" />
        <dc:title />
      </cc:Work>
    </rdf:RDF>
  </metadata>
  <g
     inkscape:label="Calque 1"
     inkscape:groupmode="layer"
     id="layer1"
     transform="translate(0.00532515,-602.36538)">
    <path
       style="fill:#d9534f;fill-opacity:1;stroke:none"
       d="m 223.21875,602.375 c -1.35787,0.0127 -2.70468,0.0247 -4.0625,0.0625 -71.76341,1.2433 -141.138766,39.59557 -180.78125,99.09375 -41.7386478,60.68404 -50.114753,142.69419 -21.78125,210.78125 27.472396,68.4059 90.6946,121.0365 163.03125,135.3125 36.13587,7.5487 73.31476,3.5517 109.9375,4.5625 l 160.375,0 c -0.18852,-78.82859 0.40369,-157.68002 -0.25,-236.5 C 446.54284,742.87022 405.18634,673.56901 343.03125,635.78125 307.34781,613.64547 265.3128,601.98193 223.21875,602.375 z m 1.78125,15 c 115.97721,0 210,94.01954 210,210 l 0,210 -210,0 c -115.97723,0 -210,-94.01953 -210,-210 0,-115.98046 94.02277,-210 210,-210 z m 0,10 c -110.45696,0 -200,89.54305 -200,200 0,110.45695 89.54304,200 200,200 l 200,0 0,-200 c 0,-110.45695 -89.54305,-200 -200,-200 z m 0,112.5 c 48.32492,0 87.5,39.17508 87.5,87.5 0,48.32492 -39.17508,87.5 -87.5,87.5 -48.32492,0 -87.5,-39.17508 -87.5,-87.5 0,-48.32492 39.17508,-87.5 87.5,-87.5 z"
       id="path3851"
       inkscape:connector-curvature="0" />
  </g>
</svg>
