<?xml version="1.0" standalone="no"?>
<!DOCTYPE svg PUBLIC "-//W3C//DTD SVG 20010904//EN"
 "http://www.w3.org/TR/2001/REC-SVG-20010904/DTD/svg10.dtd">
<svg version="1.0" xmlns="http://www.w3.org/2000/svg"
 width="225.000000pt" height="179.000000pt" viewBox="0 0 225.000000 179.000000"
 preserveAspectRatio="xMidYMid meet">
<metadata>
Created by potrace 1.11, written by Peter Selinger 2001-2013
</metadata>
<g transform="translate(0.000000,179.000000) scale(0.100000,-0.100000)"
fill="#000000" stroke="none">
<path d="M1342 1678 c-7 -7 -12 -24 -12 -39 0 -20 6 -28 24 -33 28 -7 104 -99
166 -201 47 -76 130 -245 130 -264 0 -6 -11 -16 -25 -21 -26 -10 -31 -29 -16
-58 6 -9 17 -57 25 -107 l15 -89 -24 -42 c-14 -23 -39 -54 -56 -68 -17 -15
-29 -29 -26 -32 9 -9 94 53 118 87 19 28 21 38 15 107 -4 43 -12 97 -17 121
-9 39 -7 45 11 58 11 8 20 21 20 29 0 20 10 17 41 -12 20 -20 42 -28 78 -32
49 -4 50 -5 36 -25 -19 -27 -19 -56 0 -80 36 -49 25 -179 -25 -276 -48 -95
-103 -158 -229 -263 -67 -55 -121 -106 -121 -113 0 -30 26 -35 68 -12 146 78
255 184 320 312 46 89 55 142 47 280 l-6 120 64 106 c75 125 138 214 224 321
67 82 79 121 43 133 -28 9 -40 -2 -40 -34 0 -31 -38 -92 -106 -172 -218 -253
-221 -256 -274 -250 -34 4 -50 20 -144 146 -200 266 -256 348 -256 371 0 35
-44 56 -68 32z"/>
<path d="M686 1190 c-140 -25 -311 -159 -356 -276 -34 -91 -44 -181 -31 -271
10 -69 10 -78 -5 -86 -10 -5 -40 -33 -68 -62 -28 -29 -79 -71 -113 -94 -35
-24 -63 -49 -63 -57 0 -51 113 -89 265 -89 103 0 110 1 110 20 0 18 -6 20 -55
18 -63 -3 -222 24 -246 42 -14 10 -11 15 23 37 66 44 162 146 164 173 0 5 8
-15 18 -45 58 -180 209 -341 391 -417 86 -35 202 -38 271 -7 165 76 230 270
151 447 -43 95 -155 212 -251 261 -170 88 -362 44 -449 -102 -22 -39 -27 -59
-27 -117 0 -58 5 -80 29 -128 40 -78 116 -153 190 -188 73 -35 124 -37 183 -8
106 51 125 178 42 272 -96 110 -260 128 -310 35 -33 -62 2 -179 67 -218 97
-61 199 42 113 114 -36 30 -46 32 -77 10 -28 -19 -27 -67 1 -72 16 -3 17 -1 5
17 -11 18 -11 23 2 31 25 16 39 11 55 -21 13 -25 14 -33 4 -46 -20 -23 -89
-11 -116 22 -52 60 -10 165 65 165 111 0 238 -181 176 -252 -72 -81 -206 -56
-313 57 -136 143 -134 302 4 393 55 36 139 56 197 47 91 -16 215 -91 279 -170
61 -76 83 -139 87 -250 4 -94 2 -103 -25 -155 -40 -76 -104 -110 -207 -110
-139 0 -261 55 -377 170 -112 112 -155 215 -166 400 -8 144 27 242 120 328
138 126 350 164 531 94 149 -58 341 -213 411 -330 38 -64 92 -90 132 -64 24
15 -56 131 -167 243 -89 89 -119 112 -197 152 -51 26 -128 57 -170 68 -91 23
-227 32 -297 19z"/>
</g>
</svg>
